<mxfile host="app.diagrams.net" modified="2021-03-19T03:52:39.665Z" agent="5.0 (Macintosh; Intel Mac OS X 10_14_6) AppleWebKit/537.36 (KHTML, like Gecko) Chrome/89.0.4389.90 Safari/537.36" etag="adLN4A8m4cXUPdUYw6ki" version="14.4.9" type="github">
  <diagram id="5DMlIufQVIWfGFp9VYdZ" name="Page-1">
    <mxGraphModel dx="1188" dy="643" grid="1" gridSize="10" guides="1" tooltips="1" connect="1" arrows="1" fold="1" page="1" pageScale="1" pageWidth="827" pageHeight="1169" math="0" shadow="0">
      <root>
        <mxCell id="0" />
        <mxCell id="1" parent="0" />
        <mxCell id="FKpEjiBS8ZV94QEZ8DdH-21" style="edgeStyle=orthogonalEdgeStyle;rounded=0;orthogonalLoop=1;jettySize=auto;html=1;exitX=1;exitY=0.5;exitDx=0;exitDy=0;entryX=0;entryY=0.5;entryDx=0;entryDy=0;" edge="1" parent="1" source="FKpEjiBS8ZV94QEZ8DdH-2" target="FKpEjiBS8ZV94QEZ8DdH-3">
          <mxGeometry relative="1" as="geometry" />
        </mxCell>
        <mxCell id="FKpEjiBS8ZV94QEZ8DdH-23" style="edgeStyle=orthogonalEdgeStyle;rounded=0;orthogonalLoop=1;jettySize=auto;html=1;exitX=1;exitY=0.5;exitDx=0;exitDy=0;entryX=0;entryY=0.5;entryDx=0;entryDy=0;" edge="1" parent="1" source="FKpEjiBS8ZV94QEZ8DdH-2" target="FKpEjiBS8ZV94QEZ8DdH-6">
          <mxGeometry relative="1" as="geometry" />
        </mxCell>
        <mxCell id="FKpEjiBS8ZV94QEZ8DdH-24" style="edgeStyle=orthogonalEdgeStyle;rounded=0;orthogonalLoop=1;jettySize=auto;html=1;exitX=1;exitY=0.5;exitDx=0;exitDy=0;entryX=0;entryY=0.5;entryDx=0;entryDy=0;" edge="1" parent="1" source="FKpEjiBS8ZV94QEZ8DdH-2" target="FKpEjiBS8ZV94QEZ8DdH-5">
          <mxGeometry relative="1" as="geometry" />
        </mxCell>
        <mxCell id="FKpEjiBS8ZV94QEZ8DdH-25" style="edgeStyle=orthogonalEdgeStyle;rounded=0;orthogonalLoop=1;jettySize=auto;html=1;exitX=1;exitY=0.5;exitDx=0;exitDy=0;entryX=0;entryY=0.5;entryDx=0;entryDy=0;" edge="1" parent="1" source="FKpEjiBS8ZV94QEZ8DdH-2" target="FKpEjiBS8ZV94QEZ8DdH-4">
          <mxGeometry relative="1" as="geometry" />
        </mxCell>
        <mxCell id="FKpEjiBS8ZV94QEZ8DdH-2" value="科目" style="rounded=0;whiteSpace=wrap;html=1;fillColor=#dae8fc;strokeColor=#6c8ebf;" vertex="1" parent="1">
          <mxGeometry x="20" y="435" width="80" height="50" as="geometry" />
        </mxCell>
        <mxCell id="FKpEjiBS8ZV94QEZ8DdH-27" style="edgeStyle=orthogonalEdgeStyle;rounded=0;orthogonalLoop=1;jettySize=auto;html=1;entryX=0;entryY=0.5;entryDx=0;entryDy=0;" edge="1" parent="1" source="FKpEjiBS8ZV94QEZ8DdH-3" target="FKpEjiBS8ZV94QEZ8DdH-8">
          <mxGeometry relative="1" as="geometry" />
        </mxCell>
        <mxCell id="FKpEjiBS8ZV94QEZ8DdH-28" style="edgeStyle=orthogonalEdgeStyle;rounded=0;orthogonalLoop=1;jettySize=auto;html=1;exitX=1;exitY=0.5;exitDx=0;exitDy=0;entryX=0;entryY=0.5;entryDx=0;entryDy=0;" edge="1" parent="1" source="FKpEjiBS8ZV94QEZ8DdH-3" target="FKpEjiBS8ZV94QEZ8DdH-9">
          <mxGeometry relative="1" as="geometry" />
        </mxCell>
        <mxCell id="FKpEjiBS8ZV94QEZ8DdH-29" style="edgeStyle=orthogonalEdgeStyle;rounded=0;orthogonalLoop=1;jettySize=auto;html=1;exitX=1;exitY=0.5;exitDx=0;exitDy=0;entryX=0;entryY=0.5;entryDx=0;entryDy=0;" edge="1" parent="1" source="FKpEjiBS8ZV94QEZ8DdH-3" target="FKpEjiBS8ZV94QEZ8DdH-10">
          <mxGeometry relative="1" as="geometry" />
        </mxCell>
        <mxCell id="FKpEjiBS8ZV94QEZ8DdH-3" value="【课程】1 篮球" style="rounded=0;whiteSpace=wrap;html=1;fillColor=#ffe6cc;strokeColor=#d79b00;" vertex="1" parent="1">
          <mxGeometry x="140" y="325" width="100" height="50" as="geometry" />
        </mxCell>
        <mxCell id="FKpEjiBS8ZV94QEZ8DdH-4" value="【课程】2 足球" style="rounded=0;whiteSpace=wrap;html=1;fillColor=#ffe6cc;strokeColor=#d79b00;" vertex="1" parent="1">
          <mxGeometry x="140" y="395" width="100" height="50" as="geometry" />
        </mxCell>
        <mxCell id="FKpEjiBS8ZV94QEZ8DdH-5" value="【课程】3 英语" style="rounded=0;whiteSpace=wrap;html=1;fillColor=#ffe6cc;strokeColor=#d79b00;" vertex="1" parent="1">
          <mxGeometry x="140" y="465" width="100" height="50" as="geometry" />
        </mxCell>
        <mxCell id="FKpEjiBS8ZV94QEZ8DdH-6" value="【课程】4 乐高" style="rounded=0;whiteSpace=wrap;html=1;fillColor=#ffe6cc;strokeColor=#d79b00;" vertex="1" parent="1">
          <mxGeometry x="140" y="535" width="100" height="50" as="geometry" />
        </mxCell>
        <mxCell id="FKpEjiBS8ZV94QEZ8DdH-30" style="edgeStyle=orthogonalEdgeStyle;rounded=0;orthogonalLoop=1;jettySize=auto;html=1;entryX=0;entryY=0.5;entryDx=0;entryDy=0;" edge="1" parent="1" source="FKpEjiBS8ZV94QEZ8DdH-8" target="FKpEjiBS8ZV94QEZ8DdH-11">
          <mxGeometry relative="1" as="geometry" />
        </mxCell>
        <mxCell id="FKpEjiBS8ZV94QEZ8DdH-31" style="edgeStyle=orthogonalEdgeStyle;rounded=0;orthogonalLoop=1;jettySize=auto;html=1;exitX=1;exitY=0.5;exitDx=0;exitDy=0;entryX=0;entryY=0.5;entryDx=0;entryDy=0;" edge="1" parent="1" source="FKpEjiBS8ZV94QEZ8DdH-8" target="FKpEjiBS8ZV94QEZ8DdH-12">
          <mxGeometry relative="1" as="geometry" />
        </mxCell>
        <mxCell id="FKpEjiBS8ZV94QEZ8DdH-32" style="edgeStyle=orthogonalEdgeStyle;rounded=0;orthogonalLoop=1;jettySize=auto;html=1;exitX=1;exitY=0.5;exitDx=0;exitDy=0;entryX=0;entryY=0.5;entryDx=0;entryDy=0;" edge="1" parent="1" source="FKpEjiBS8ZV94QEZ8DdH-8" target="FKpEjiBS8ZV94QEZ8DdH-13">
          <mxGeometry relative="1" as="geometry" />
        </mxCell>
        <mxCell id="FKpEjiBS8ZV94QEZ8DdH-33" style="edgeStyle=orthogonalEdgeStyle;rounded=0;orthogonalLoop=1;jettySize=auto;html=1;exitX=1;exitY=0.5;exitDx=0;exitDy=0;entryX=0;entryY=0.5;entryDx=0;entryDy=0;" edge="1" parent="1" source="FKpEjiBS8ZV94QEZ8DdH-8" target="FKpEjiBS8ZV94QEZ8DdH-16">
          <mxGeometry relative="1" as="geometry" />
        </mxCell>
        <mxCell id="FKpEjiBS8ZV94QEZ8DdH-8" value="&lt;span style=&quot;color: rgb(51 , 51 , 51) ; font-family: &amp;#34;arial&amp;#34; , sans-serif ; text-align: left ; background-color: rgb(255 , 204 , 204)&quot;&gt;&lt;font style=&quot;font-size: 12px&quot;&gt;【课堂】1：运球训练（50分钟）&lt;/font&gt;&lt;/span&gt;" style="rounded=0;whiteSpace=wrap;html=1;fillColor=#f8cecc;strokeColor=#b85450;" vertex="1" parent="1">
          <mxGeometry x="290" y="245" width="180" height="50" as="geometry" />
        </mxCell>
        <mxCell id="FKpEjiBS8ZV94QEZ8DdH-9" value="&lt;span style=&quot;color: rgb(51 , 51 , 51) ; font-family: &amp;#34;arial&amp;#34; , sans-serif ; text-align: left ; background-color: rgb(255 , 204 , 204)&quot;&gt;&lt;font style=&quot;font-size: 12px&quot;&gt;【课堂】2：篮板训练（50分钟）&lt;/font&gt;&lt;/span&gt;" style="rounded=0;whiteSpace=wrap;html=1;fillColor=#f8cecc;strokeColor=#b85450;" vertex="1" parent="1">
          <mxGeometry x="290" y="325" width="180" height="50" as="geometry" />
        </mxCell>
        <mxCell id="FKpEjiBS8ZV94QEZ8DdH-10" value="&lt;span style=&quot;color: rgb(51 , 51 , 51) ; font-family: &amp;#34;arial&amp;#34; , sans-serif ; text-align: left ; background-color: rgb(255 , 204 , 204)&quot;&gt;&lt;font style=&quot;font-size: 12px&quot;&gt;【课堂】3：投篮训练（50分钟）&lt;/font&gt;&lt;/span&gt;" style="rounded=0;whiteSpace=wrap;html=1;fillColor=#f8cecc;strokeColor=#b85450;" vertex="1" parent="1">
          <mxGeometry x="290" y="405" width="180" height="50" as="geometry" />
        </mxCell>
        <mxCell id="FKpEjiBS8ZV94QEZ8DdH-34" style="edgeStyle=orthogonalEdgeStyle;rounded=0;orthogonalLoop=1;jettySize=auto;html=1;entryX=0;entryY=0.5;entryDx=0;entryDy=0;" edge="1" parent="1" source="FKpEjiBS8ZV94QEZ8DdH-11" target="FKpEjiBS8ZV94QEZ8DdH-17">
          <mxGeometry relative="1" as="geometry" />
        </mxCell>
        <mxCell id="FKpEjiBS8ZV94QEZ8DdH-35" style="edgeStyle=orthogonalEdgeStyle;rounded=0;orthogonalLoop=1;jettySize=auto;html=1;exitX=1;exitY=0.5;exitDx=0;exitDy=0;entryX=0;entryY=0.5;entryDx=0;entryDy=0;" edge="1" parent="1" source="FKpEjiBS8ZV94QEZ8DdH-11" target="FKpEjiBS8ZV94QEZ8DdH-18">
          <mxGeometry relative="1" as="geometry" />
        </mxCell>
        <mxCell id="FKpEjiBS8ZV94QEZ8DdH-36" style="edgeStyle=orthogonalEdgeStyle;rounded=0;orthogonalLoop=1;jettySize=auto;html=1;exitX=1;exitY=0.5;exitDx=0;exitDy=0;entryX=0;entryY=0.5;entryDx=0;entryDy=0;" edge="1" parent="1" source="FKpEjiBS8ZV94QEZ8DdH-11" target="FKpEjiBS8ZV94QEZ8DdH-19">
          <mxGeometry relative="1" as="geometry" />
        </mxCell>
        <mxCell id="FKpEjiBS8ZV94QEZ8DdH-11" value="&lt;span style=&quot;color: rgb(51 , 51 , 51) ; font-family: &amp;#34;arial&amp;#34; , sans-serif ; font-size: 14px ; text-align: left ; background-color: rgb(230 , 208 , 222)&quot;&gt;【模块】1：热身运动（10分钟）&lt;/span&gt;" style="rounded=0;whiteSpace=wrap;html=1;fillColor=#e1d5e7;strokeColor=#9673a6;" vertex="1" parent="1">
          <mxGeometry x="510" y="115" width="230" height="50" as="geometry" />
        </mxCell>
        <mxCell id="FKpEjiBS8ZV94QEZ8DdH-12" value="&lt;span style=&quot;color: rgb(51 , 51 , 51) ; font-family: &amp;#34;arial&amp;#34; , sans-serif ; font-size: 14px ; text-align: left ; background-color: rgb(230 , 208 , 222)&quot;&gt;【模块】2：拍球练习（15分钟）&lt;/span&gt;" style="rounded=0;whiteSpace=wrap;html=1;fillColor=#e1d5e7;strokeColor=#9673a6;" vertex="1" parent="1">
          <mxGeometry x="510" y="195" width="230" height="50" as="geometry" />
        </mxCell>
        <mxCell id="FKpEjiBS8ZV94QEZ8DdH-13" value="&lt;p style=&quot;margin: 10px 0px 0px ; padding: 0px ; color: rgb(51 , 51 , 51) ; font-family: &amp;#34;arial&amp;#34; , sans-serif ; font-size: 14px ; text-align: left&quot;&gt;&lt;span style=&quot;background-color: rgb(230 , 208 , 222)&quot;&gt;【模块】3：行进间运球（15分钟）&lt;/span&gt;&lt;/p&gt;&lt;div&gt;&lt;br&gt;&lt;/div&gt;" style="rounded=0;whiteSpace=wrap;html=1;fillColor=#e1d5e7;strokeColor=#9673a6;" vertex="1" parent="1">
          <mxGeometry x="510" y="275" width="230" height="50" as="geometry" />
        </mxCell>
        <mxCell id="FKpEjiBS8ZV94QEZ8DdH-16" value="&lt;p style=&quot;margin: 10px 0px 0px ; padding: 0px ; color: rgb(51 , 51 , 51) ; font-family: &amp;#34;arial&amp;#34; , sans-serif ; font-size: 14px ; text-align: left&quot;&gt;&lt;span style=&quot;background-color: rgb(230 , 208 , 222)&quot;&gt;【模块】4：行进间运球（15分钟）&lt;/span&gt;&lt;/p&gt;&lt;div&gt;&lt;br&gt;&lt;/div&gt;" style="rounded=0;whiteSpace=wrap;html=1;fillColor=#e1d5e7;strokeColor=#9673a6;" vertex="1" parent="1">
          <mxGeometry x="510" y="355" width="230" height="50" as="geometry" />
        </mxCell>
        <mxCell id="FKpEjiBS8ZV94QEZ8DdH-17" value="&lt;span style=&quot;color: rgb(51 , 51 , 51) ; font-family: &amp;#34;arial&amp;#34; , sans-serif ; font-size: 14px ; text-align: left ; background-color: rgb(213 , 232 , 212)&quot;&gt;【课程环节】1：左手运球（5分钟）&lt;/span&gt;" style="rounded=0;whiteSpace=wrap;html=1;fillColor=#d5e8d4;strokeColor=#82b366;" vertex="1" parent="1">
          <mxGeometry x="780" y="35" width="260" height="50" as="geometry" />
        </mxCell>
        <mxCell id="FKpEjiBS8ZV94QEZ8DdH-18" value="&lt;p style=&quot;margin: 10px 0px 0px ; padding: 0px ; color: rgb(51 , 51 , 51) ; font-family: &amp;#34;arial&amp;#34; , sans-serif ; font-size: 14px ; text-align: left&quot;&gt;&lt;span style=&quot;background-color: rgb(213 , 232 , 212)&quot;&gt;【课程环节】2：右手运球（5分钟）&lt;/span&gt;&lt;/p&gt;&lt;div&gt;&lt;br&gt;&lt;/div&gt;" style="rounded=0;whiteSpace=wrap;html=1;fillColor=#d5e8d4;strokeColor=#82b366;" vertex="1" parent="1">
          <mxGeometry x="780" y="115" width="260" height="50" as="geometry" />
        </mxCell>
        <mxCell id="FKpEjiBS8ZV94QEZ8DdH-19" value="&lt;div&gt;&lt;p style=&quot;margin: 10px 0px 0px ; padding: 0px ; color: rgb(51 , 51 , 51) ; font-family: &amp;#34;arial&amp;#34; , sans-serif ; font-size: 14px ; text-align: left&quot;&gt;&lt;span style=&quot;background-color: rgb(213 , 232 , 212)&quot;&gt;【课程环节】3：交叉换手运球（5分钟）&lt;/span&gt;&lt;/p&gt;&lt;div&gt;&lt;br&gt;&lt;/div&gt;&lt;/div&gt;" style="rounded=0;whiteSpace=wrap;html=1;fillColor=#d5e8d4;strokeColor=#82b366;" vertex="1" parent="1">
          <mxGeometry x="780" y="195" width="260" height="50" as="geometry" />
        </mxCell>
      </root>
    </mxGraphModel>
  </diagram>
</mxfile>
